<svg width="69" height="35" viewBox="0 0 69 35" fill="none" xmlns="http://www.w3.org/2000/svg">
<mask id="mask0_45_4" style="mask-type:alpha" maskUnits="userSpaceOnUse" x="0" y="0" width="69" height="35">
<rect width="69" height="33" fill="#D9D9D9"/>
</mask>
<g mask="url(#mask0_45_4)">
<path d="M-436.549 -3.39111V-246.15C-436.549 -250.016 -433.415 -253.15 -429.549 -253.15H497.549C501.415 -253.15 504.549 -250.016 504.549 -246.15V-3.39111C504.549 0.474869 501.415 3.60889 497.549 3.60889H68.6394C66.2525 3.60889 63.9633 4.5571 62.2755 6.24493L39.4454 29.075C36.7117 31.8087 32.2796 31.8087 29.5459 29.075L6.71585 6.24493C5.02805 4.5571 2.73886 3.60889 0.351898 3.60889H-429.549C-433.415 3.60889 -436.549 0.474869 -436.549 -3.39111Z" stroke="url(#paint0_linear_45_4)" stroke-width="2"/>
</g>
<defs>
<linearGradient id="paint0_linear_45_4" x1="34" y1="32.107" x2="34" y2="-148.121" gradientUnits="userSpaceOnUse">
<stop stop-color="#030211"/>
<stop offset="1" stop-opacity="0"/>
</linearGradient>
</defs>
</svg>
